<?xml version="1.0" encoding="utf-8"?>
<!-- Generator: Adobe Illustrator 24.0.3, SVG Export Plug-In . SVG Version: 6.00 Build 0)  -->
<svg version="1.1" id="Layer_1" xmlns="http://www.w3.org/2000/svg" xmlns:xlink="http://www.w3.org/1999/xlink" x="0px" y="0px"
	 viewBox="0 0 40 40" style="enable-background:new 0 0 40 40;" xml:space="preserve">
<style type="text/css">
	.st0{fill:#FFFFFF;}
</style>
<path class="st0" d="M34.9,2.5H5.1c-1.3,0-2.5,1-2.5,2.5V35c0,1.3,1.2,2.5,2.5,2.5h29.8c1.3,0,2.5-1,2.5-2.5V5
	C37.6,3.7,36.4,2.5,34.9,2.5z M13,32.3H7.8V15.7H13L13,32.3L13,32.3z M10.3,13.3c-1.6,0-3-1.3-3-3c0-1.7,1.3-3,3-3c1.7,0,3,1.3,3,3
	C13.3,11.9,12,13.3,10.3,13.3z M32.3,32.3h-5.2v-8.1c0-1.9,0-4.3-2.7-4.3s-3.1,2.1-3.1,4.3v8.2H16V15.7H21v2.2h0.1
	c0.7-1.3,2.4-2.7,4.9-2.7c5.2,0,6.1,3.4,6.1,7.9v9.1H32.3z"/>
</svg>
