<svg id="_ÎÓÈ_1" data-name="—ÎÓÈ_1" xmlns="http://www.w3.org/2000/svg" viewBox="0 0 718.75 225.01"><defs><style>.cls-1{fill:#66717e;}.cls-2{fill:#005ca7;}.cls-3{fill:#c4271c;}</style></defs><title>N2G_Logo_Final</title><path class="cls-1" d="M210.24,371.4H185.86a110.84,110.84,0,0,0,14.2,36.88Z" transform="translate(-140.63 -192.16)"/><path class="cls-1" d="M145.47,371.4c7.26,18,21.9,30.63,41.49,35.81a115.7,115.7,0,0,1-11.75-35.81Z" transform="translate(-140.63 -192.16)"/><polygon class="cls-1" points="48.17 216.47 48.16 216.54 48.16 216.54 48.2 216.46 48.17 216.47"/><path class="cls-1" d="M142.41,361.61h31.74a119.37,119.37,0,0,1,3-34.71H142.75A78.34,78.34,0,0,0,142.41,361.61Z" transform="translate(-140.63 -192.16)"/><path class="cls-1" d="M164.31,282.4a115.42,115.42,0,0,0-18.85,34.7h34.35a157.28,157.28,0,0,1,16-34.7Z" transform="translate(-140.63 -192.16)"/><path class="cls-1" d="M202.25,272.6a232.51,232.51,0,0,1,31.58-36c-22.13,5.31-44.09,18.25-61.05,36Z" transform="translate(-140.63 -192.16)"/><path class="cls-1" d="M213.34,272.6H237.5l10.06-36.48A232,232,0,0,0,213.34,272.6Z" transform="translate(-140.63 -192.16)"/><path class="cls-1" d="M187.07,326.9a109.71,109.71,0,0,0-2.55,34.71h28.42l9.58-34.71Z" transform="translate(-140.63 -192.16)"/><path class="cls-1" d="M206.55,282.4a148.6,148.6,0,0,0-16.75,34.7h35.42l9.57-34.7Z" transform="translate(-140.63 -192.16)"/><path class="cls-2" d="M270,195.89h36.72L383,349.73l43.16-153.84h39L404.6,413.44H371.42L292.51,255.25,248.7,413.44H209.41Z" transform="translate(-140.63 -192.16)"/><path class="cls-1" d="M428,403.41l111.36-83.54c21.58-16.2,32.76-29.05,32.76-45.76,0-17.73-14.65-31.1-40-31.1-22.37,0-40,12.08-53.28,25.7l-9.86-8.22c16.26-16.2,36.5-29.56,63.68-29.56,31.7,0,53.81,17.48,53.81,42.93,0,21.33-14.65,36.75-38.63,54.75l-96.44,72H559.1l-3.46,12.86h-130Z" transform="translate(-140.63 -192.16)"/><path class="cls-3" d="M589.86,323.62c0-67.44,59.59-131.46,139.79-131.46,47.35,0,74.08,18.33,89.22,38.54l-29.63,24.24c-13.21-15.23-30.92-27.66-62.49-27.66-54.43,0-95.34,45.68-95.34,95.1,0,38.22,27.7,60,64.42,60a103.53,103.53,0,0,0,47.67-11.19l13.85-46H699.69L709,291.92h96L774.42,396c-22.87,13.06-48.31,21.14-81.17,21.14C640.43,417.17,589.86,385.78,589.86,323.62Z" transform="translate(-140.63 -192.16)"/><path class="cls-1" d="M816.45,212.11l2.6-2.15a7.35,7.35,0,0,0,5.91,2.77c2.19,0,3.78-1.09,3.78-2.72,0-1.17-.81-1.87-3.61-3-3-1.21-5-2.55-5-5.27,0-3.69,3.33-6.16,7.53-6.16a9.31,9.31,0,0,1,7.2,2.94l-2.41,2.35a6.82,6.82,0,0,0-5-2.24c-2.3,0-3.64,1.26-3.64,2.58s1,1.88,3.81,3c3,1.17,4.87,2.54,4.87,5.26,0,3.84-3.5,6.27-7.64,6.27C821.07,215.78,818.24,214.49,816.45,212.11Z" transform="translate(-140.63 -192.16)"/><path class="cls-1" d="M840.11,195.9h3.5l3.42,9.27,8.4-9.27h3.94l-5.26,19.6h-3.5l3.78-14.05-8.62,9.24h-.12L842,201.5l-3.75,14h-3.44Z" transform="translate(-140.63 -192.16)"/></svg>