<?xml version="1.0" encoding="utf-8"?>
<!-- Generator: Adobe Illustrator 24.0.3, SVG Export Plug-In . SVG Version: 6.00 Build 0)  -->
<svg version="1.1" id="_ÎÓÈ_1" xmlns="http://www.w3.org/2000/svg" xmlns:xlink="http://www.w3.org/1999/xlink" x="0px" y="0px"
	 viewBox="0 0 718.8 225" style="enable-background:new 0 0 718.8 225;" xml:space="preserve">
<style type="text/css">
	.st0{fill:#FFFFFF;}
</style>
<title>N2G_Logo_Final</title>
<path class="st0" d="M69.6,179.2H45.2c2.5,13,7.3,25.5,14.2,36.9L69.6,179.2z"/>
<path class="st0" d="M4.8,179.2c7.3,18,21.9,30.6,41.5,35.8c-5.8-11.2-9.8-23.3-11.8-35.8H4.8z"/>
<polygon class="st0" points="48.2,216.5 48.2,216.5 48.2,216.5 48.2,216.5 "/>
<path class="st0" d="M1.8,169.4h31.7c-0.7-11.7,0.3-23.3,3-34.7H2.1C-0.6,146.1-0.7,158,1.8,169.4z"/>
<path class="st0" d="M23.7,90.2c-8.2,10.4-14.6,22.1-18.9,34.7h34.4c3.9-12.2,9.3-23.8,16-34.7H23.7z"/>
<path class="st0" d="M61.6,80.4c9.3-13.1,19.8-25.1,31.6-36c-22.1,5.3-44.1,18.2-61.1,36H61.6z"/>
<path class="st0" d="M72.7,80.4h24.2L106.9,44C94.2,54.9,82.8,67.1,72.7,80.4z"/>
<path class="st0" d="M46.4,134.7c-2.7,11.4-3.6,23.1-2.6,34.7h28.4l9.6-34.7H46.4z"/>
<path class="st0" d="M65.9,90.2c-7.1,10.8-12.7,22.5-16.8,34.7h35.4l9.6-34.7H65.9z"/>
<path class="st0" d="M129.4,3.7h36.7l76.3,153.8L285.5,3.7h39L264,221.3h-33.2L151.9,63.1l-43.8,158.2H68.8L129.4,3.7z"/>
<path class="st0" d="M287.4,211.2l111.4-83.5c21.6-16.2,32.8-29,32.8-45.8c0-17.7-14.7-31.1-40-31.1c-22.4,0-40,12.1-53.3,25.7
	l-9.9-8.2c16.3-16.2,36.5-29.6,63.7-29.6c31.7,0,53.8,17.5,53.8,42.9c0,21.3-14.7,36.8-38.6,54.8l-96.4,72h107.7l-3.5,12.9H285
	L287.4,211.2z"/>
<path class="st0" d="M449.2,131.5C449.2,64,508.8,0,589,0c47.3,0,74.1,18.3,89.2,38.5l-29.6,24.2c-13.2-15.2-30.9-27.7-62.5-27.7
	c-54.4,0-95.3,45.7-95.3,95.1c0,38.2,27.7,60,64.4,60c16.6,0.1,32.9-3.7,47.7-11.2l13.8-46h-57.7l9.3-33.3h96l-30.6,104.1
	c-22.9,13.1-48.3,21.1-81.2,21.1C499.8,225,449.2,193.6,449.2,131.5z"/>
<path class="st0" d="M675.8,19.9l2.6-2.1c1.4,1.8,3.6,2.8,5.9,2.8c2.2,0,3.8-1.1,3.8-2.7c0-1.2-0.8-1.9-3.6-3c-3-1.2-5-2.6-5-5.3
	c0-3.7,3.3-6.2,7.5-6.2c2.7-0.1,5.3,1,7.2,2.9l-2.4,2.4c-1.3-1.4-3.1-2.2-5-2.2c-2.3,0-3.6,1.3-3.6,2.6s1,1.9,3.8,3
	c3,1.2,4.9,2.5,4.9,5.3c0,3.8-3.5,6.3-7.6,6.3C680.4,23.6,677.6,22.3,675.8,19.9z"/>
<path class="st0" d="M699.5,3.7h3.5l3.4,9.3l8.4-9.3h3.9l-5.3,19.6H710l3.8-14.1l-8.6,9.2H705l-3.7-9.2l-3.8,14h-3.4L699.5,3.7z"/>
</svg>
